PathFileType	4	(X/Y/Z)	35_2_92_p1_0-174_filt_butterworth.trc
DataRate	CameraRate	NumFrames	NumMarkers	Units	OrigDataRate	OrigDataStartFrame	OrigNumFrames
40.0	40.0	4	27	m	40.0	0	174
Frame#	Time	RHip			RKnee			RAnkle			RBigToe			RSmallToe			RHeel			LHip			LKnee			LAnkle			LBigToe			LSmallToe			LHeel			Neck			Head			Nose			RShoulder			RElbow			RWrist			RThumb			RIndex			RPinky			LShoulder			LElbow			LWrist			LThumb			LIndex			LPinky			
		X1	Y1	Z1	X2	Y2	Z2	X3	Y3	Z3	X4	Y4	Z4	X5	Y5	Z5	X6	Y6	Z6	X7	Y7	Z7	X8	Y8	Z8	X9	Y9	Z9	X10	Y10	Z10	X11	Y11	Z11	X12	Y12	Z12	X13	Y13	Z13	X14	Y14	Z14	X15	Y15	Z15	X16	Y16	Z16	X17	Y17	Z17	X18	Y18	Z18	X19	Y19	Z19	X20	Y20	Z20	X21	Y21	Z21	X22	Y22	Z22	X23	Y23	Z23	X24	Y24	Z24	X25	Y25	Z25	X26	Y26	Z26	X27	Y27	Z27	
0	0.0	0.39868276595849883	0.393636334323053	0.9351718230133518	0.38817761880309576	-0.04462724634261023	1.0107259428137667	0.3921119086416107	-0.48672828378106764	1.0495324164674502	0.340804516348072	-0.48149173189693995	0.8173823971811565	0.41135667344881593	-0.4894295822843988	0.8423087622513598	0.36204077341039126	-0.5636179733735459	1.1521519595517309	0.1620560279339054	0.36804617190275024	0.98981664963634	0.1764114281323688	-0.057141890819414676	1.0250816739049433	0.1797576286757537	-0.4884923313452274	1.0461957133872186	0.1856854376040194	-0.4694807393154909	0.8225127198282839	0.13671481964468177	-0.48737351471371365	0.8671289391197566	0.1988137228186672	-0.5507982674181636	1.0829314540261936	0.2880746866290596	0.9496795783229972	0.9546852691316036	0.2986375362100286	1.195456712956343	0.9172121587859401	0.29147748116537514	1.0630415358573915	0.8899913485894115	0.43786453069075526	0.8681744133358347	0.9409087378040129	0.4694000354380646	0.607933646270284	0.8508019671701333	0.3189728201577494	0.43746435577989745	0.7486605053505924	0.2407550162541673	0.3668814908377134	0.7668967268712974	0.23362999599299572	0.35265486018336045	0.7810774007395748	0.24553659864417213	0.3499987393417408	0.7937980077412317	0.12643219753717222	0.8650175989608435	0.9840797348456789	0.07517406478034268	0.6126192194228184	0.9168519500619217	0.18303330118114286	0.4581553796299489	0.7680729114247522	0.29057230257552186	0.41342987778298335	0.7205615764133417	0.29449273895793077	0.38248885377818403	0.7313918353853934	0.25548917174440544	0.35472463371589846	0.7762947891836147	
1	0.025	0.3973982996504053	0.3932034354237251	0.9364811855532651	0.3883995373900317	-0.044907834303138494	1.0113025629769985	0.3923725942200658	-0.4879582083272876	1.0498963821296725	0.3407993263277271	-0.4807642018390337	0.8173372868641844	0.4126255705646166	-0.4840420362720332	0.8352352449770774	0.36243539894708	-0.565539559556344	1.1527456753773357	0.16172564890782293	0.36907492747299053	0.9894214091292254	0.17644016379269636	-0.05679907511504051	1.0253127560876338	0.17966077566335473	-0.48884590821185686	1.0461480426435303	0.18552199524189575	-0.4696284091024011	0.8226093564189981	0.13436839312951143	-0.49198697733147945	0.8742396222584965	0.19802484283004987	-0.5508596770685675	1.0828374361439708	0.2880638438625364	0.9496400110472667	0.9547320272139832	0.298610939724909	1.196830821665954	0.9176014530654282	0.2914830276284145	1.0629877753656956	0.8899387858664112	0.43864953153140424	0.8684349202260381	0.9394325296653755	0.4693035944169968	0.609274893677463	0.8498864048646495	0.3198312409417985	0.43816234891220496	0.7486522252396652	0.24059412264465058	0.36528087245724705	0.7656963628199813	0.2342891717699656	0.3502401441791443	0.7814968746469435	0.24542587913186936	0.34822380685657084	0.7934637132751955	0.12647299222567632	0.8650213041487248	0.984123346254739	0.07471158763936933	0.6120722587486156	0.9179681814954137	0.18512073133965778	0.45807785038334753	0.7704001941537191	0.2866892400384616	0.4075533010383783	0.7317735484140553	0.2896342786880459	0.3794509640196537	0.7389970800347457	0.25627625073773375	0.3530606938523626	0.7812907139111468	
2	0.05	0.3964047416382934	0.39260061608180136	0.9381385924031229	0.3885932849239204	-0.045144947886256004	1.0118063047954644	0.39258641669773114	-0.4889591104430016	1.0501956721322643	0.340801529623435	-0.4804607487645793	0.8172086426517158	0.4135250196338461	-0.480383301501715	0.8307882683350568	0.36274483657670076	-0.5670317328249038	1.153209693666237	0.1614727073573425	0.36992800528632097	0.9891110197150492	0.17646461307908956	-0.056519987277311834	1.0255006471060832	0.1796067900230422	-0.489007633206826	1.0460994397085153	0.18546869526916077	-0.46958460789119194	0.8226560984869561	0.13292053580368837	-0.49481854397805025	0.8786214394860157	0.19736172207771221	-0.550884140546417	1.0827132002762085	0.28807017488184816	0.9496219375339343	0.9547641861901862	0.2985940820081294	1.1972157141519808	0.9178133943588559	0.29147316653222183	1.0629746202144246	0.8899126418815217	0.4400950275738211	0.8683246745907267	0.9404478079345001	0.46915795048994635	0.6100991060693524	0.8497583400569337	0.32092278760906856	0.43825003274702906	0.7495934959555316	0.2406380719582043	0.3638127327258764	0.7652962834445631	0.23460856624796234	0.34864557025146975	0.7817087237216642	0.2454136582838553	0.34709409576342926	0.7932000659803706	0.12650565339155295	0.8650186657347613	0.9841714236195398	0.07493521271682492	0.6124345203919653	0.9174131575466817	0.18701307307437412	0.4589672749299495	0.7702200363348853	0.28442080965833116	0.40266647400000155	0.7395449637785918	0.28661090645803816	0.3769243865353401	0.7440609273891082	0.25720745649005694	0.3519171619246148	0.784703592647567	
3	0.075	0.3956739740061846	0.3918565944029216	0.9400869306716284	0.38876080370403737	-0.045341472402513516	1.0122417201709957	0.3927564926485885	-0.4897463146448222	1.0504346335696346	0.34080796047836626	-0.48048096303784227	0.8170275276248268	0.41411650716543447	-0.47814025462564336	0.8284433285370418	0.36297618504261553	-0.5681307483838466	1.1535550742952556	0.16128876410446896	0.3706230383290365	0.9888763823648139	0.176485049850871	-0.05629922344360838	1.0256489349863438	0.17959130876562435	-0.48900054157728695	1.046050677305923	0.1854962918334315	-0.4694035982003587	0.8226616805725021	0.13219312616829204	-0.49622404436618595	0.8808170303124163	0.196814781385094	-0.5508753984648721	1.0825625542634274	0.2880880365529051	0.949620292959325	0.9547866013118071	0.2985848418594363	1.1968618613486135	0.9178854065730546	0.29145446783084833	1.0629890212219573	0.8899101813466801	0.4419202153675456	0.8679635543058943	0.9431325322484572	0.4689839057491076	0.6105127362961348	0.8502095066868005	0.3221716576853455	0.43785135462637875	0.7512901682014352	0.24082617075835755	0.36254990727348335	0.7655048531947881	0.23468334227362878	0.34776046813217754	0.7817589995782424	0.24547242976954403	0.3464867664155595	0.7930009155247101	0.12653121098434195	0.8650114338607591	0.9842218715953197	0.07566015639900713	0.6134564419881336	0.9156276951634624	0.18870353488844668	0.46045308245517247	0.7682994026205796	0.2834297494540033	0.39874861064111106	0.7444542453238955	0.2850637713575898	0.3748844489473455	0.74704358545776	0.2582240688461501	0.3512029223567502	0.7868219287931486	
